<svg xmlns="http://www.w3.org/2000/svg" width="20" height="20" viewBox="0 0 20 20" fill="none">
  <g clip-path="url(#clip0_16_104)">
    <path d="M19.2142 6.10795C18.7106 4.91709 17.9897 3.84764 17.0715 2.92936C16.1533 2.01105 15.084 1.29002 13.8931 0.78627C12.66 0.264609 11.3504 7.8125e-05 10 0C8.65031 0 7.34072 0.264453 6.10764 0.785996C4.91684 1.28965 3.84746 2.01059 2.92922 2.92877C2.01098 3.84695 1.28998 4.91629 0.78625 6.10705C0.264609 7.34012 7.81423e-05 8.64971 1.73086e-08 9.99941C-7.81077e-05 11.3492 0.264316 12.6589 0.78582 13.8921C1.28943 15.0829 2.01035 16.1524 2.92853 17.0706C3.84672 17.989 4.91607 18.71 6.10689 19.2138C7.34002 19.7354 8.64967 19.9999 9.99992 20H10.0001C11.3498 20 12.6593 19.7356 13.8924 19.214C15.0832 18.7104 16.1526 17.9894 17.0708 17.0713C17.989 16.1531 18.7101 15.0838 19.2138 13.893C19.7354 12.6599 19.9999 11.3503 20 10.0006C20.0001 8.6508 19.7357 7.34113 19.2142 6.10795ZM10.0001 19.0689H9.99949C7.57711 19.0688 5.29975 18.1253 3.58693 16.4123C1.87416 14.6993 0.930957 12.4219 0.931094 9.99947C0.931387 4.99916 4.99969 0.931113 10.0005 0.931113C12.4229 0.93125 14.7003 1.87471 16.413 3.5877C18.1258 5.3007 19.069 7.57814 19.0689 10.0005C19.0686 15.0008 15.0004 19.0689 10.0001 19.0689Z" fill="url(#paint0_linear_16_104)"/>
    <path d="M14.1735 5.80898C13.0862 4.68967 11.583 4.08203 10.048 4.08203C6.78577 4.08203 4.16337 6.73643 4.19538 9.96658C4.19538 10.9899 4.48319 11.9815 4.96292 12.8769L4.13138 15.9152L7.23364 15.1156C8.09702 15.5954 9.0565 15.8193 10.0159 15.8193C13.2461 15.8193 15.8686 13.1649 15.8686 9.93461C15.8687 8.36752 15.2609 6.89635 14.1735 5.80898ZM10.048 14.8277C9.18441 14.8277 8.32095 14.6041 7.58528 14.1562L7.39353 14.0603L5.53853 14.5401L6.01823 12.7171L5.89036 12.5253C4.48319 10.2544 5.15484 7.2482 7.45739 5.84107C9.76011 4.43391 12.7343 5.10555 14.1415 7.40811C15.5488 9.71086 14.8772 12.6852 12.5745 14.0922C11.8389 14.5719 10.9434 14.8277 10.048 14.8277ZM12.8622 11.2779L12.5106 11.118C12.5106 11.118 11.9989 10.894 11.679 10.7341C11.647 10.7341 11.615 10.7023 11.583 10.7023C11.4871 10.7023 11.4231 10.7341 11.3592 10.7662C11.3592 10.7662 11.3272 10.7981 10.8795 11.3097C10.8475 11.3737 10.7834 11.4059 10.7196 11.4059H10.6876C10.6555 11.4059 10.5917 11.3738 10.5597 11.3419L10.3997 11.2779C10.0479 11.118 9.72804 10.9262 9.4723 10.6701C9.40831 10.6064 9.31237 10.5423 9.24835 10.4784C9.02441 10.2544 8.80062 9.99861 8.64075 9.71086L8.6087 9.6468C8.57671 9.61478 8.57671 9.58291 8.54472 9.51891C8.54472 9.45488 8.54472 9.39102 8.57675 9.35898C8.57675 9.35898 8.70466 9.19906 8.80066 9.10318C8.86454 9.03916 8.89657 8.94326 8.96058 8.87924C9.02444 8.78338 9.05646 8.65529 9.02444 8.55945C8.99261 8.39953 8.60876 7.53598 8.5129 7.3442C8.44888 7.24816 8.3848 7.21613 8.28898 7.18428H8.1931C8.12907 7.18428 8.03317 7.18428 7.93716 7.18428C7.87327 7.18428 7.80925 7.21613 7.74525 7.21613L7.71339 7.24816C7.64939 7.28018 7.5853 7.3442 7.52146 7.37604C7.45745 7.44008 7.42542 7.50412 7.36155 7.56797C7.13761 7.85576 7.00972 8.2076 7.00972 8.55945C7.00972 8.81521 7.07372 9.07117 7.1696 9.29494L7.20165 9.39098C7.48944 9.99857 7.87329 10.5423 8.38484 11.022L8.51294 11.1498C8.60878 11.246 8.7047 11.3097 8.76874 11.4059C9.44038 11.9815 10.2079 12.3972 11.0715 12.6211C11.1673 12.653 11.2952 12.653 11.3912 12.6851C11.4872 12.6851 11.6151 12.6851 11.7111 12.6851C11.871 12.6851 12.0628 12.6211 12.1908 12.5571C12.2867 12.493 12.3508 12.493 12.4146 12.429L12.4786 12.3653C12.5425 12.3013 12.6065 12.2691 12.6705 12.2054C12.7344 12.1413 12.7984 12.0773 12.8304 12.0133C12.8943 11.8855 12.9263 11.7256 12.9584 11.5657C12.9584 11.5017 12.9584 11.4058 12.9584 11.3418C12.9583 11.3419 12.9263 11.3097 12.8622 11.2779Z" fill="url(#paint1_linear_16_104)"/>
  </g>
  <defs>
    <linearGradient id="paint0_linear_16_104" x1="10" y1="0" x2="10" y2="20" gradientUnits="userSpaceOnUse">
      <stop stop-color="#F97023"/>
      <stop offset="1" stop-color="#FF4E50"/>
    </linearGradient>
    <linearGradient id="paint1_linear_16_104" x1="10" y1="4.08203" x2="10" y2="15.9152" gradientUnits="userSpaceOnUse">
      <stop stop-color="#F97023"/>
      <stop offset="1" stop-color="#FF4E50"/>
    </linearGradient>
    <clipPath id="clip0_16_104">
      <rect width="20" height="20" fill="white"/>
    </clipPath>
  </defs>
</svg>