<svg width="370" height="407" viewBox="0 0 370 407" fill="none" xmlns="http://www.w3.org/2000/svg">
<path d="M60 132.5L116 86.5L101.5 109L93.5 132.5L83.5 140V171.5L89 182L83.5 195L116.5 246L119.5 254V267L123.5 281.5L132.5 289.5L140 316.5L148 327L169.5 327.5L203.5 351L367.5 188L324 273L199 406L49.5 273L39.5 159L60 132.5Z" fill="#0F0202" stroke="#0F0202"/>
<path d="M317 154.5L229.5 79L247.5 102L265 119L269 162L257.5 193.5L263.5 214L259.5 222.5L244 240.5L238.5 254.5L237 284.5L228 305.5L206 327.5H169.5L203.5 351L288.5 284.5L367 188L317 154.5Z" fill="#0F0202" stroke="#0F0202"/>
<path d="M238.5 254.5L237 284.5L232.5 279V258.5L235.5 242L228.5 237L245.5 220L237.5 206.5L245.5 197.5V183H249L258.5 174.5L269 162L257.5 193.5L263.5 214L259.5 222.5L244 241L238.5 254.5Z" fill="#310D0D" stroke="#310D0D"/>
<path d="M140 316.5L132.5 290L134.234 291H147.5L157.5 288L161.5 285.5L165 291.5L187 294L193.5 285.5L206 290.5H217.5L232.5 279L237 284.5L228.5 305L206 327H148L140 316.5Z" fill="#4A0101" stroke="#4A0101"/>
<path d="M165 291.5L161.5 285.5L166 282.5H186.5L193.5 285.5L187 294L165 291.5Z" fill="#300101" stroke="#440000"/>
<path d="M116.5 246L123.5 222.5L135 228.5L143 239L155.5 243L165.5 255L173.5 269.5L172 276.5L165.5 282.5L157.5 288L148 291H134L123.5 281.5L119.5 267V254L116.5 246Z" fill="#541B02" stroke="#541B02"/>
<path d="M175.5 276.5L173.5 269.5L172 276.5L166 282.5H185.5L175.5 276.5Z" fill="#0C0000" stroke="black"/>
<path d="M102 223.5L105 201L118 209L123.5 222.5L116.5 246L102 223.5Z" fill="#832609" stroke="#832609"/>
<path d="M101.5 109L127.5 69.5L133.5 92.5L160 100.5L159 110L135 104L126.5 116L128 137.5L117.5 135L105 142.5L92 138L101.5 109Z" fill="#C92805" stroke="#C92805"/>
<path d="M194 228L192.5 233L183.5 231.5L176.5 238.5L176 257L173 269L165.5 255.5L161 241.5L152.5 233L145 235L143 233L147.5 227.5H154.5L167.5 233L178 230L186.5 224L194 228Z" fill="#500404" stroke="#500404"/>
<path d="M143 239L135 228.5L143 233L144.5 235.5L152.5 233L161 241.5L165.5 255.5L155 243.5L143 239Z" fill="#0C0000" stroke="#0C0000"/>
<path d="M183 245L209.5 224.5H204L192.5 233L184 231.5L176.5 238.5V256L183 245Z" fill="#0C0000" stroke="#0C0000"/>
<path d="M192.5 233.5L194 227.5V215L179.5 198.5L188.5 199L197.5 203L216 224H204.5L192.5 233.5Z" fill="#3D0202" stroke="#3D0202"/>
<path d="M193.5 215L179.5 198.5L151 196.5L140.5 206V224L143 233L148 227.5H154.5L167.5 233L177.5 230L186 224L193.5 227.5V215Z" fill="#220101" stroke="#220101"/>
<path d="M129.5 167.5L134.5 162.5L139.5 176L138.5 180.5L132 196L122.5 222.5L132 176L129.5 167.5Z" fill="#550E0E" stroke="#550E0E"/>
<path d="M135.5 156L137.5 148L128 140.5H116.5L110 147.5L121 156H135.5Z" fill="#FFE1E1" stroke="black"/>
<path d="M135 104L159 110L156.5 128.5L147.5 126.5L143 140.5L145 158.5L140 163L137 147.5L128 140.5H116.5L113.5 144.5L110.5 148L104.5 142.5L117.5 135L128 137.5L126.5 116L135 104Z" fill="#360606" stroke="#360606"/>
<path d="M140.5 124L136 135L130 130V116.5L142.5 110L140.5 124Z" fill="#B52929" stroke="#B52929"/>
<path d="M147.5 126.5L156 128.5L173.5 139.5L185 129.5V133L175 167L186 187.5L188 191H150.5L137.5 200L140.5 163L145 158.5L143 140.5L147.5 126.5Z" fill="#8A3606" stroke="#8A3606"/>
<path d="M110 156.5V148L121 156L133 159L134.5 162.5L129.5 168L110 156.5Z" fill="#200101" stroke="#200101"/>
<path d="M248 102L221 69V79L249 131.5L256 139L258.5 146.5L259 174.5L269 162L265 119L248 102Z" fill="#FF2727" stroke="#FF2727"/>
<path d="M249 131.5L221 79L207.5 98.5L218.5 113.5L216.5 132.5H232L247 138L249 131.5Z" fill="#9A0C0C" stroke="#9A0C0C"/>
<path d="M181.5 81.5L186.5 100L202.5 93L207.5 98.5L221 79V68L204.5 60.5L191.5 81.5H181.5Z" fill="#B80D0D" stroke="#B80D0D"/>
<path d="M173 105L159.5 100.5L162 82.5L150.5 58L178 45.5L204.5 60.5L192 81L181.5 82.5L186 100.5L173 105Z" fill="#830808" stroke="#830808"/>
<path d="M173.5 139.5L185 129V100.5L173.5 105L160 100.5L156.5 128L173.5 139.5Z" fill="#F47500" stroke="#F47500"/>
<path d="M188 121.5L196 159L208.5 156L214 142.5L222 137.5H231L239 143L245 144L247 138L231.5 132.5H216.5L218.5 113.5L203 94L188 121.5Z" fill="#0F0202" stroke="#0F0202"/>
<path d="M151 191H188L199 203.5L188 199L151 196.5L140.5 205.5L137 201.5L151 191Z" fill="#440D0D" stroke="#440D0D"/>
<path d="M196 159L208.5 156L207 178L202 189L197 180L185.5 187.5L175 166.5L188 123L196 159Z" fill="#BC4614" stroke="#BC4614"/>
<path d="M185.5 187.5L197 202L202 189.5L197 180L185.5 187.5Z" fill="#A41414" stroke="#A41414"/>
<path d="M197 202L230 238.5L217 197L207 177.5L197 202Z" fill="#DC880A" stroke="#DC880A"/>
<path d="M250 174.5L245.5 178.5L237.5 173L245.5 158L250 155L243.5 149V144.5H245L253 149.5L254 159L252 165L248.5 163.5L247 169.5H252L250 174.5Z" fill="#930A0A" stroke="#930A0A"/>
<path d="M249.5 154.5L243.5 149.5L231.5 158.5L222 161V166.5L232.5 167L249.5 154.5Z" fill="#581515" stroke="#581515"/>
<path d="M231 137.5L239 142.5L231 151L218.5 154L208.5 156.5L214 142.5L222 137.626H230.572L231 137.5Z" fill="#FFE1E1" stroke="black"/>
<path d="M243.5 143.5H238.5L231 151L216.5 154.5V164.5L222 166.5V160.5L231.5 158.5L243.5 149.5V143.5Z" fill="#1E0606" stroke="#1E0606"/>
<path d="M208 157L217 154.5V164.5L216.5 178.5V197.5L207 177.5L208 157Z" fill="#0F0202" stroke="#0F0202"/>
<path d="M256 139L249 131.5L244.5 144L253 149.5L254 159L251.5 165L249 163.5L247 169.5H251.5L250.5 174.5L245 178.5V183H249L258.5 174.5V165V146.5L256 139Z" fill="#E1A508" stroke="#E1A508"/>
<path d="M240.2 170.962L249 156L234.15 164.255H223.15L217.65 162.191L216 176.121V196.242L230.3 237L249 219.459L240.2 205.529L249 196.242V180.248V176.121L240.2 170.962Z" fill="#880F0F" stroke="#880F0F"/>
<path d="M214 116L208 130L200.5 113L206 106.5L214 116Z" fill="#1E0606" stroke="black"/>
<path d="M186 99.5L202 94L188 122L185 129.5L186 99.5Z" fill="#921212" stroke="#921212"/>
<path d="M133.5 92.5L160 100.5L162 82.5L150 58.5L126.5 69L133.5 92.5Z" fill="#BE1C1C" stroke="#BE1C1C"/>
<path d="M133.5 159L121 156H135L137.5 148L140 163L139.5 176L133.5 159Z" fill="#1E0606" stroke="#1E0606"/>
<path d="M122.5 222L143 233L140.5 224.5V205.5L137.5 201.5L138.5 180L122.5 222Z" fill="#9F6017" stroke="#9F6017"/>
<path d="M92.5 160V138L104 142.5L110 148V156.5L130 168.5L132 176L123 224L118 208.5L105.5 201V178.5L92.5 160Z" fill="#840D0D" stroke="#840D0D"/>
<path d="M235.5 242L228 236.5L216 224H210L183 245.5L176 257L173.5 269L176 276.5L187 283L206 290.5H217.5L232.5 279V259L235.5 242Z" fill="#7E2E0C" stroke="#7E2E0C"/>
<path d="M83.5 195L102 223.5L105.5 201V178.5L92.5 160L92 138L94 132L83.5 140V171.5L89 182L83.5 195Z" fill="#D63916" stroke="#D63916"/>
<path d="M310 125.5L229.5 79L316.5 153.5L310 125.5Z" fill="#F8E325" stroke="#F8E325"/>
<path d="M36.5 93L53 141.5L61.5 130.5L70 69L89 45.5L47.5 48.5L36.5 63V93Z" fill="#E39703" stroke="#E39703"/>
<path d="M331.5 89.5L310 125.5L277.5 47.5L286.5 41.5L331.5 63.5V89.5Z" fill="#E48E0B" stroke="#E48E0B"/>
<path d="M1 185.5L49.5 273L39.5 159L53 141.5L36.5 84.5L1 185.5Z" fill="#C1150A" stroke="#C1150A"/>
<path d="M178 45.5H89L69.5 69L61 131.5L116 87L127.5 69L178 45.5Z" fill="#5C1212" stroke="#5C1212"/>
<path d="M309.5 125L277.5 47.5L221 68.5L229.5 79L309.5 125Z" fill="#9C1010" stroke="#9C1010"/>
<path d="M183.5 1L286.5 41L277.5 47.5L221 68L204.5 60.5L178 45.5L77 46.5L183.5 1Z" fill="#CD0000" stroke="#CD0000"/>
<path d="M368.5 188L331.5 89.5L310 125L316.5 154L339 245.5L368.5 188Z" fill="#D31D1D" stroke="#D31D1D"/>
</svg>
